
<svg width="98px" height="86px" viewBox="14 -1 98 86" version="1.1" xmlns="http://www.w3.org/2000/svg" xmlns:xlink="http://www.w3.org/1999/xlink">
    <!-- Generator: Sketch 42 (36781) - http://www.bohemiancoding.com/sketch -->
    <desc>Created with Sketch.</desc>
    <defs></defs>
    <g id="Group" stroke="none" stroke-width="1" fill="none" fill-rule="evenodd" transform="translate(15.000000, 0.000000)">
        <g id="layer14" transform="translate(0.000000, 0.593110)" fill-rule="nonzero">
            <g id="g8245" transform="translate(0.953460, 0.304590)">
                <path d="M16.9366,17.81648 C14.37118,17.81648 12.26296,19.89929 12.26296,22.49011 C12.26296,23.70932 12.72017,24.80153 13.48217,25.63974 C11.22156,25.96994 9.49434,27.90035 9.49434,30.26257 C9.49434,31.93897 10.38335,33.3868 11.70416,34.225 C10.00235,34.91081 8.78314,36.58721 8.78314,38.54302 C8.78314,40.47345 9.95155,42.12446 11.60256,42.83566 C10.25635,43.64846 9.34194,45.12167 9.34194,46.8235 C9.34194,48.77931 10.53575,50.43031 12.23756,51.14153 C11.17076,52.00513 10.48495,53.30054 10.48495,54.79915 C10.48495,57.36456 12.56777,59.47279 15.15859,59.47279 L15.26019,59.47279 C14.72678,60.2348 14.39658,61.1746 14.39658,62.1906 C14.39658,64.75603 16.4794,66.86425 19.07022,66.86425 C19.45122,66.86425 19.83222,66.81345 20.18782,66.73724 C19.95922,67.27065 19.83222,67.88025 19.83222,68.51525 C19.83222,71.08068 21.91504,73.18889 24.50586,73.18889 C25.47106,73.18889 26.38547,72.88409 27.12208,72.37609 C27.12208,72.47769 27.09668,72.55389 27.09668,72.65549 C27.09668,75.22091 29.17949,77.32912 31.77031,77.32912 C33.14192,77.32912 34.36113,76.74492 35.22474,75.77971 C35.25014,78.34513 37.33295,80.40254 39.89837,80.40254 C41.26998,80.40254 42.48919,79.81834 43.3528,78.87854 C43.9878,80.68194 45.71501,81.97736 47.74703,81.97736 C49.77905,81.97736 51.50626,80.68194 52.14126,78.87854 C53.00487,79.81834 54.22408,80.40254 55.59569,80.40254 C58.16111,80.40254 60.24392,78.34513 60.26932,75.77971 C61.13293,76.71952 62.35214,77.32912 63.72375,77.32912 C66.28917,77.32912 68.39738,75.24631 68.39738,72.65549 C68.39738,72.55389 68.39738,72.47769 68.37198,72.37609 C69.10859,72.88409 70.023,73.18889 70.9882,73.18889 C73.55362,73.18889 75.66184,71.10608 75.66184,68.51525 C75.66184,67.88025 75.53484,67.29605 75.30624,66.73724 C75.66184,66.81344 76.04284,66.86425 76.42384,66.86425 C78.98926,66.86425 81.09748,64.78143 81.09748,62.1906 C81.09748,61.1746 80.76728,60.2602 80.23387,59.47279 L80.33547,59.47279 C82.90089,59.47279 85.00911,57.38996 85.00911,54.79915 C85.00911,53.32594 84.3233,52.00513 83.2565,51.14153 C84.95831,50.45571 86.15212,48.77931 86.15212,46.8235 C86.15212,45.12167 85.23771,43.64846 83.8915,42.83566 C85.54251,42.12446 86.71092,40.47345 86.71092,38.54302 C86.71092,36.58721 85.51711,34.91081 83.7899,34.225 C85.11071,33.4122 85.99972,31.93897 85.99972,30.26257 C85.99972,27.92575 84.2725,25.96994 82.01189,25.63974 C82.77389,24.80153 83.2311,23.70932 83.2311,22.49011 C83.2311,19.92469 81.14828,17.81648 78.55746,17.81648 L60.26932,6.8944 C60.26932,4.32898 58.18651,2.22076 55.59569,2.22076 C54.17328,2.22076 52.87787,2.85577 52.03966,3.87176 C51.32846,2.22076 49.67744,1.07775 47.77243,1.07775 C45.86742,1.07775 44.2164,2.22076 43.5052,3.87176 C42.64159,2.85577 41.37158,2.22076 39.94917,2.22076 C37.38375,2.22076 35.27554,4.30358 35.27554,6.8944 L16.9874,17.81648 L16.9366,17.81648 Z" id="path4321-3-4-8" stroke="#000000" fill="#FFFFFF"></path>
                <path d="M36.77415,8.57081 C32.50692,2.83037 19.58611,-0.8811 12.95666,0.54132 C10.26424,6.23096 -13.61695,46.23219 11.70416,34.225 L36.79955,8.57081 L36.77415,8.57081 Z" id="path4329-52-4-0" stroke="#000000" fill="#FFFFFF"></path>
                <path d="M47.69623,42.20066 C63.59675,42.20066 72.45269,49.19898 72.45269,56.94604 C72.45269,64.69309 63.62215,67.34685 47.69623,67.34685 C31.79571,67.34685 22.6979,64.69309 22.6979,56.94604 C22.6979,49.19898 31.79571,42.20066 47.69623,42.20066 Z" id="path4335-1-3-1" stroke="#000000" fill="#E6E6E6"></path>
                <path d="M54.09708,44.58827 C54.09708,46.7727 52.16666,48.52531 47.69623,48.52531 C43.2258,48.52531 41.29538,46.7473 41.29538,44.58827 C41.29538,42.40386 43.2258,40.65125 47.69623,40.65125 C52.16666,40.65125 54.09708,42.42926 54.09708,44.58827 Z" id="path4337-9-5-0" fill="#000000"></path>
                <path d="M34.56433,36.56181 C34.56433,33.7932 32.30371,31.53257 29.53509,31.53257 C26.76647,31.53257 24.50586,33.7932 24.50586,36.56181 C24.50586,39.33044 26.76647,41.59106 29.53509,41.59106 C32.30371,41.59106 34.56433,39.33044 34.56433,36.56181 Z" id="path4675-5-6-7" fill="#000000" class="eye"></path>
                <path d="M71.57241,36.56181 C71.57241,33.7932 69.31179,31.53257 66.54317,31.53257 C63.77455,31.53257 61.51393,33.7932 61.51393,36.56181 C61.51393,39.33044 63.77455,41.59106 66.54317,41.59106 C69.31179,41.59106 71.57241,39.33044 71.57241,36.56181 L71.57241,36.56181 Z" id="path4677-9-9-4" fill="#000000" class="eye"></path>
                <path d="M58.7199,8.57081 C62.98714,2.83038 75.90794,-0.88109 82.53739,0.54133 C85.22981,6.23098 109.110997,46.23221 83.78989,34.225 L58.6945,8.57081 L58.7199,8.57081 Z" id="path4329-5-6-4-1" stroke="#000000" fill="#FFFFFF"></path>
                <path d="M55.90813,57.2233 L40.13461,57.2233 C38.9408,57.2233 37.97559,56.25809 37.97559,55.06428 C37.97559,53.87047 38.9408,52.90527 40.13461,52.90527 L55.90813,52.90527 C57.10193,52.90527 58.06714,53.87047 58.06714,55.06428 C58.06714,56.25809 57.10193,57.2233 55.90813,57.2233 Z" id="path4650-3" stroke="#000000" fill="#E9AFAF"></path>
            </g>
        </g>
    </g>
</svg>